<svg width="12" height="12" viewBox="0 0 12 12" fill="none" xmlns="http://www.w3.org/2000/svg">
<path d="M6.1346 11.8232C6.90413 11.8232 7.62679 11.6767 8.30257 11.3837C8.97835 11.0908 9.57405 10.6865 10.0897 10.1708C10.6092 9.65522 11.0155 9.05952 11.3084 8.38374C11.6014 7.70405 11.7479 6.97944 11.7479 6.20991C11.7479 5.44429 11.5994 4.72358 11.3026 4.0478C11.0096 3.36811 10.6033 2.77046 10.0838 2.25483C9.56819 1.7353 8.97249 1.32905 8.29671 1.03608C7.62093 0.743114 6.89827 0.59663 6.12874 0.59663C5.36311 0.59663 4.64241 0.743114 3.96663 1.03608C3.29085 1.32905 2.69319 1.7353 2.17366 2.25483C1.65804 2.77046 1.25374 3.36811 0.96077 4.0478C0.667801 4.72358 0.521317 5.44429 0.521317 6.20991C0.521317 6.97944 0.667801 7.70405 0.96077 8.38374C1.25764 9.05952 1.66389 9.65522 2.17952 10.1708C2.69514 10.6865 3.29085 11.0908 3.96663 11.3837C4.64241 11.6767 5.36507 11.8232 6.1346 11.8232ZM6.1346 10.9736C5.47444 10.9736 4.8553 10.8505 4.27718 10.6044C3.70296 10.3583 3.19905 10.0185 2.76546 9.58491C2.33186 9.14741 1.99202 8.64155 1.74593 8.06733C1.49983 7.48921 1.37679 6.87007 1.37679 6.20991C1.37679 5.55366 1.49983 4.93843 1.74593 4.36421C1.99202 3.78608 2.33186 3.28022 2.76546 2.84663C3.19905 2.40913 3.70296 2.06733 4.27718 1.82124C4.85139 1.57515 5.46858 1.4521 6.12874 1.4521C6.7928 1.4521 7.41194 1.57515 7.98616 1.82124C8.56038 2.06733 9.06429 2.40913 9.49788 2.84663C9.93538 3.28022 10.2772 3.78608 10.5233 4.36421C10.7694 4.93843 10.8924 5.55366 10.8924 6.20991C10.8963 6.87007 10.7752 7.48921 10.5291 8.06733C10.283 8.64155 9.94124 9.14741 9.50374 9.58491C9.07014 10.0185 8.56429 10.3583 7.98616 10.6044C7.41194 10.8505 6.79475 10.9736 6.1346 10.9736ZM3.57991 9.02827H8.67171C8.78108 9.02827 8.85921 8.99702 8.90608 8.93452C8.95296 8.87202 8.97639 8.7939 8.97639 8.70015C8.97639 8.5439 8.9178 8.34468 8.80061 8.10249C8.68733 7.8603 8.5135 7.61616 8.27913 7.37007C8.04475 7.12397 7.74788 6.9189 7.3885 6.75483C7.03304 6.58686 6.61311 6.50288 6.12874 6.50288C5.64436 6.50288 5.22249 6.58686 4.86311 6.75483C4.50374 6.9189 4.20686 7.12397 3.97249 7.37007C3.73811 7.61616 3.56233 7.8603 3.44514 8.10249C3.33186 8.34468 3.27522 8.5439 3.27522 8.70015C3.27522 8.7939 3.30061 8.87202 3.35139 8.93452C3.40218 8.99702 3.47835 9.02827 3.57991 9.02827ZM6.12874 6.05171C6.39046 6.05561 6.62874 5.98921 6.84358 5.85249C7.05843 5.71577 7.22835 5.53022 7.35335 5.29585C7.48225 5.06147 7.54671 4.7978 7.54671 4.50483C7.54671 4.22749 7.48225 3.97358 7.35335 3.74311C7.22835 3.51265 7.05843 3.32905 6.84358 3.19233C6.62874 3.05171 6.39046 2.9814 6.12874 2.9814C5.86702 2.9814 5.62874 3.05171 5.41389 3.19233C5.19905 3.32905 5.02718 3.51265 4.89827 3.74311C4.76936 3.97358 4.70491 4.22749 4.70491 4.50483C4.70491 4.94233 4.84358 5.30952 5.12093 5.6064C5.39827 5.89936 5.73421 6.0478 6.12874 6.05171Z" />
</svg>
